# Blender v2.80 (sub 75) OBJ File: 'Camera Detection Zone.blend'
# www.blender.org
mtllib Camera Detection Zone.mtl
o Cube_Cube.001
v -1.146475 -3.599179 1.290617
v 0.000000 0.250425 0.000000
v -1.146475 -1.245783 -1.290617
v 1.146475 -3.599179 1.290617
v 1.146475 -1.245783 -1.290617
vt 0.375000 0.000000
vt 0.625000 0.250000
vt 0.375000 0.250000
vt 0.625000 0.500000
vt 0.375000 0.500000
vt 0.625000 0.750000
vt 0.375000 0.750000
vt 0.625000 1.000000
vt 0.375000 1.000000
vt 0.125000 0.500000
vt 0.125000 0.750000
vn -0.8649 0.3710 0.3382
vn 0.0000 0.6532 -0.7572
vn 0.8649 0.3710 0.3382
vn 0.0000 0.3179 0.9481
vn 0.0000 -0.7390 -0.6737
usemtl None
s off
f 1/1/1 2/2/1 3/3/1
f 3/3/2 2/4/2 5/5/2
f 5/5/3 2/6/3 4/7/3
f 4/7/4 2/8/4 1/9/4
f 3/10/5 5/5/5 4/7/5 1/11/5
